Coordinates
version=1
nRows=33
nColumns=33
inDegrees=yes

Units are S.I. units (second, meters, Newtons, ...)
Angles are in degrees.

endheader
time	ground_thorax_rot_x	ground_thorax_rot_y	ground_thorax_rot_z	ground_thorax_tx	ground_thorax_ty	ground_thorax_tz	clav_prot_r	clav_elev_r	scapula_abduction_r	scapula_elevation_r	scapula_upward_rot_r	scapula_winging_r	shoulder_elv_r	plane_of_elev_r	axial_rot_r	elbow_flexion_r	pro_sup_r	wrist_flex_r	wrist_dev_r	clav_prot_l	clav_elev_l	scapula_abduction_l	scapula_elevation_l	scapula_upward_rot_l	scapula_winging_l	shoulder_elv_l	plane_of_elev_l	axial_rot_l	elbow_flexion_l	pro_sup_l	wrist_flex_l	wrist_dev_l	
10.5200	-25.779236	-29.433842	44.927115	17.569976	767.671780	-41.219385	28.065306	-45.000000	38.766580	-45.000000	-45.000000	-4062.801537	-2625.673606	161.324704	45.623489	721.098588	181.279513	13.777260	13.007251	-1.004343	30.429936	-26.872212	-45.000000	-45.000000	-3878.162851	-1005.087010	25.394082	43.498390	1429.155206	42.221667	12.261262	-15.308046	
10.5300	-26.048640	-29.244124	44.459261	14.595651	768.532142	-41.090717	28.046227	-45.000000	38.751214	-45.000000	-45.000000	-4062.905886	-2625.618033	161.286090	45.384031	721.078709	180.912437	13.775883	13.114424	-1.005711	30.484099	-26.968172	-45.000000	-45.000000	-3878.013298	-1005.032674	25.410219	43.553624	1429.132969	42.045153	12.321653	-15.327005	
10.5400	-26.316572	-29.057489	43.990810	11.621710	769.454753	-40.962035	28.027137	-45.000000	38.738642	-45.000000	-45.000000	-4063.008408	-2625.563450	161.248607	45.137343	721.057418	180.487594	13.770440	13.221056	-1.007425	30.541292	-27.064150	-45.000000	-45.000000	-3877.864179	-1004.974934	25.425976	43.627668	1429.113600	41.876114	12.385144	-15.349781	
10.5500	-26.585377	-28.870509	43.517678	8.654064	770.437377	-40.833341	28.007287	-45.000000	38.726203	-45.000000	-45.000000	-4063.111572	-2625.511313	161.207665	44.888051	721.035543	180.007787	13.760007	13.327419	-1.010464	30.596818	-27.162572	-45.000000	-45.000000	-3877.714684	-1004.914686	25.444288	43.719881	1429.097478	41.714122	12.451757	-15.376431	
10.5600	-26.850959	-28.689297	43.046904	5.698526	771.477440	-40.704849	27.986260	-45.000000	38.715891	-45.000000	-45.000000	-4063.215288	-2625.460608	161.166232	44.644999	721.013253	179.481413	13.743739	13.432531	-1.015033	30.654719	-27.259731	-45.000000	-45.000000	-3877.566549	-1004.851136	25.460773	43.830205	1429.083510	41.558167	12.521288	-15.406315	
10.5700	-27.112780	-28.508620	42.577181	2.760945	772.572546	-40.576976	27.969264	-45.000000	38.707099	-45.000000	-45.000000	-4063.322130	-2625.406096	161.125386	44.406111	720.983528	178.914841	13.722260	13.536832	-1.022905	30.710523	-27.356561	-45.000000	-45.000000	-3877.422373	-1004.786519	25.480755	43.951403	1429.068927	41.407636	12.594987	-15.439567	
10.5800	-27.366944	-28.332571	42.113692	-0.152621	773.720894	-40.450284	27.957713	-45.000000	38.700671	-45.000000	-45.000000	-4063.428096	-2625.343849	161.090422	44.169538	720.944298	178.315371	13.695721	13.639098	-1.032258	30.771105	-27.448967	-45.000000	-45.000000	-3877.285494	-1004.719869	25.500516	44.078937	1429.052452	41.262074	12.671975	-15.475299	
10.5900	-27.617522	-28.154233	41.649528	-3.036152	774.921638	-40.325396	27.949910	-45.000000	38.693716	-45.000000	-45.000000	-4063.531977	-2625.275172	161.057919	43.928132	720.897830	177.688833	13.664369	13.739251	-1.041918	30.829969	-27.540113	-45.000000	-45.000000	-3877.154720	-1004.652643	25.525462	44.207889	1429.037132	41.121809	12.749251	-15.513024	
10.6000	-27.864086	-27.977061	41.187828	-5.883845	776.174746	-40.202969	27.941712	-45.000000	38.686590	-45.000000	-45.000000	-4063.632458	-2625.204258	161.026819	43.683402	720.850995	177.042682	13.627865	13.836251	-1.050117	30.889484	-27.630894	-45.000000	-45.000000	-3877.027162	-1004.585806	25.553148	44.337956	1429.025279	40.987373	12.824871	-15.553032	
10.6100	-28.105241	-27.800383	40.728403	-8.690681	777.480674	-40.083708	27.937784	-45.000000	38.681283	-45.000000	-45.000000	-4063.730048	-2625.130419	160.996019	43.433750	720.799648	176.376695	13.587154	13.930610	-1.059301	30.946745	-27.721468	-45.000000	-45.000000	-3876.900697	-1004.520679	25.584721	44.463619	1429.016829	40.858726	12.900205	-15.597233	
10.6200	-28.341833	-27.627150	40.272917	-11.452863	778.839691	-39.968419	27.931666	-45.000000	38.677492	-45.000000	-45.000000	-4063.823710	-2625.059299	160.963058	43.179401	720.751137	175.692635	13.541606	14.021921	-1.067733	31.003278	-27.813155	-45.000000	-45.000000	-3876.772455	-1004.457554	25.616830	44.586376	1429.013883	40.735418	12.973504	-15.645654	
10.6300	-28.575224	-27.456420	39.820043	-14.168049	780.251293	-39.858029	27.923509	-45.000000	38.674718	-45.000000	-45.000000	-4063.914870	-2624.993031	160.924185	42.922425	720.706716	174.991698	13.491579	14.110242	-1.076825	31.057296	-27.906810	-45.000000	-45.000000	-3876.640395	-1004.395355	25.650338	44.710162	1429.016482	40.616095	13.045085	-15.698699	
10.6400	-28.805159	-27.289538	39.372541	-16.835022	781.713649	-39.753563	27.908448	-45.000000	38.672093	-45.000000	-45.000000	-4064.004741	-2624.932340	160.879690	42.663303	720.668297	174.278553	13.437691	14.194536	-1.085148	31.108798	-28.003930	-45.000000	-45.000000	-3876.504803	-1004.333869	25.684007	44.837751	1429.023060	40.498730	13.114786	-15.755104	
10.6500	-29.034117	-27.123121	38.927609	-19.453154	783.223512	-39.656018	27.891006	-45.000000	38.665626	-45.000000	-45.000000	-4064.094112	-2624.874731	160.829160	42.400815	720.633443	173.558265	13.381156	14.274416	-1.093539	31.159619	-28.105149	-45.000000	-45.000000	-3876.365207	-1004.272827	25.723298	44.971846	1429.031370	40.380370	13.184893	-15.814790	
10.6600	-29.261441	-26.957053	38.485773	-22.021845	784.776455	-39.566238	27.868586	-45.000000	38.655949	-45.000000	-45.000000	-4064.181768	-2624.818795	160.774808	42.132330	720.601404	172.837415	13.322378	14.349929	-1.100067	31.208995	-28.209608	-45.000000	-45.000000	-3876.224382	-1004.211400	25.766098	45.112775	1429.041272	40.257042	13.254692	-15.875392	
10.6700	-29.491113	-26.789954	38.043505	-24.539723	786.367217	-39.484792	27.841450	-45.000000	38.639257	-45.000000	-45.000000	-4064.268569	-2624.766414	160.713285	41.861229	720.574265	172.126911	13.262886	14.420867	-1.105053	31.257619	-28.319427	-45.000000	-45.000000	-3876.078332	-1004.149083	25.816083	45.267272	1429.051876	40.124911	13.325189	-15.935805	
10.6800	-29.719148	-26.625197	37.603395	-27.004537	787.990243	-39.411969	27.811891	-45.000000	38.621115	-45.000000	-45.000000	-4064.355533	-2624.716655	160.646507	41.590709	720.546190	171.434401	13.203775	14.488923	-1.110209	31.303429	-28.431302	-45.000000	-45.000000	-3875.928960	-1004.085931	25.870113	45.434671	1429.061272	39.979499	13.399330	-15.995894	
10.6900	-29.946270	-26.463944	37.163094	-29.412929	789.640007	-39.347802	27.779113	-45.000000	38.604572	-45.000000	-45.000000	-4064.443080	-2624.671185	160.574540	41.323394	720.513554	170.767288	13.148296	14.555593	-1.115900	31.347430	-28.546226	-45.000000	-45.000000	-3875.774720	-1004.025707	25.927893	45.617378	1429.066911	39.817576	13.477708	-16.054255	
10.7000	-30.154627	-26.315795	36.743635	-31.761184	791.311526	-39.292209	27.745272	-45.000000	38.602720	-45.000000	-45.000000	-4064.531345	-2624.618612	160.512997	41.057082	720.468217	170.122162	13.098167	14.619583	-1.122336	31.390230	-28.650729	-45.000000	-45.000000	-3875.636849	-1003.963557	25.972409	45.799638	1429.067082	39.634847	13.554909	-16.104175	
10.7100	-30.349092	-26.177195	36.341346	-34.045276	793.000350	-39.245102	27.709738	-45.000000	38.609975	-45.000000	-45.000000	-4064.618646	-2624.560410	160.460042	40.791901	720.415382	169.497379	13.055685	14.679573	-1.127295	31.434600	-28.748875	-45.000000	-45.000000	-3875.512890	-1003.902262	26.007265	45.980881	1429.062714	39.429887	13.627329	-16.143308	
10.7200	-30.527933	-26.048725	35.960765	-36.261942	794.703059	-39.206739	27.674481	-45.000000	38.624480	-45.000000	-45.000000	-4064.705362	-2624.494837	160.417638	40.527818	720.357128	168.888504	13.020549	14.734689	-1.131100	31.479484	-28.838309	-45.000000	-45.000000	-3875.406621	-1003.837940	26.031534	46.157237	1429.056007	39.202334	13.694195	-16.172290	
10.7300	-30.710019	-25.921417	35.580225	-38.408867	796.417265	-39.177927	27.638483	-45.000000	38.631573	-45.000000	-45.000000	-4064.787023	-2624.434170	160.370858	40.265805	720.306119	168.297188	12.992447	14.785563	-1.131842	31.522901	-28.933290	-45.000000	-45.000000	-3875.296506	-1003.776800	26.062003	46.340412	1429.050019	38.956142	13.759261	-16.197897	
10.7400	-30.888279	-25.797825	35.208923	-40.485380	798.141839	-39.160276	27.601092	-45.000000	38.636625	-45.000000	-45.000000	-4064.867710	-2624.374630	160.324480	40.007583	720.256108	167.721683	12.971345	14.833626	-1.130695	31.565730	-29.027139	-45.000000	-45.000000	-3875.189684	-1003.711925	26.093653	46.527775	1429.046737	38.695204	13.823243	-16.222964	
10.7500	-31.073476	-25.670691	34.831315	-42.491900	799.876351	-39.155903	27.562267	-45.000000	38.634609	-45.000000	-45.000000	-4064.945043	-2624.324363	160.268673	39.751612	720.211499	167.162972	12.956972	14.880582	-1.126973	31.606358	-29.129660	-45.000000	-45.000000	-3875.071665	-1003.650378	26.137940	46.726422	1429.047467	38.426417	13.889061	-16.253239	
10.7600	-31.254843	-25.544073	34.460874	-44.429725	801.620613	-39.167181	27.519780	-45.000000	38.632689	-45.000000	-45.000000	-4065.022920	-2624.276245	160.212550	39.496623	720.163353	166.618845	12.948949	14.927124	-1.121742	31.646852	-29.231653	-45.000000	-45.000000	-3874.957008	-1003.587093	26.185561	46.930862	1429.051829	38.155556	13.955116	-16.288307	
10.7700	-31.435041	-25.417505	34.092779	-46.299792	803.373568	-39.195977	27.476049	-45.000000	38.629547	-45.000000	-45.000000	-4065.096255	-2624.232444	160.153704	39.240766	720.114835	166.086133	12.946618	14.972397	-1.114147	31.686137	-29.337231	-45.000000	-45.000000	-3874.839696	-1003.528329	26.239199	47.140176	1429.058261	37.889765	14.021616	-16.329849	
10.7800	-31.599483	-25.296593	33.745072	-48.102215	805.132814	-39.243217	27.428470	-45.000000	38.634131	-45.000000	-45.000000	-4065.170178	-2624.183035	160.104717	38.984216	720.055013	165.559263	12.950405	15.016149	-1.104297	31.728283	-29.435151	-45.000000	-45.000000	-3874.737503	-1003.467545	26.284767	47.346073	1429.065153	37.633788	14.084787	-16.374370	
10.7900	-31.756352	-25.176435	33.406322	-49.835673	806.894167	-39.308434	27.378208	-45.000000	38.641786	-45.000000	-45.000000	-4065.238037	-2624.133127	160.060058	38.725868	719.994229	165.035584	12.957448	15.057568	-1.090606	31.771148	-29.533824	-45.000000	-45.000000	-3874.640570	-1003.410986	26.329372	47.550793	1429.073417	37.392429	14.144652	-16.423592	
10.8000	-31.908959	-25.057471	33.071704	-51.498093	808.652327	-39.390204	27.327608	-45.000000	38.654598	-45.000000	-45.000000	-4065.304324	-2624.088770	160.014586	38.473174	719.931264	164.516661	12.966666	15.099433	-1.076562	31.813532	-29.633842	-45.000000	-45.000000	-3874.542072	-1003.359582	26.376363	47.760474	1429.082910	37.168367	14.206658	-16.482555	
10.8100	-32.063410	-24.936748	32.733815	-53.087213	810.401572	-39.486577	27.273788	-45.000000	38.672537	-45.000000	-45.000000	-4065.364103	-2624.053695	159.967321	38.226248	719.872898	164.006360	12.975826	15.142686	-1.060181	31.854327	-29.741493	-45.000000	-45.000000	-3874.436842	-1003.315838	26.428847	47.977900	1429.096286	36.963385	14.269010	-16.551356	
10.8200	-32.214525	-24.819999	32.402991	-54.601693	812.136933	-39.595773	27.221249	-45.000000	38.695542	-45.000000	-45.000000	-4065.424426	-2624.025457	159.918831	37.990694	719.812876	163.504768	12.986052	15.186440	-1.045576	31.892856	-29.848005	-45.000000	-45.000000	-3874.329467	-1003.273432	26.482848	48.198143	1429.113729	36.776081	14.331906	-16.629046	
10.8300	-32.356037	-24.709159	32.092354	-56.041376	813.854546	-39.716426	27.166311	-45.000000	38.719177	-45.000000	-45.000000	-4065.481517	-2623.992255	159.878853	37.759484	719.750795	163.007259	12.997122	15.226226	-1.028232	31.932068	-29.948459	-45.000000	-45.000000	-3874.234134	-1003.226484	26.530308	48.409729	1429.136288	36.603759	14.385440	-16.706059	
10.8400	-32.486050	-24.608174	31.807855	-57.407673	815.552034	-39.847795	27.116650	-45.000000	38.736494	-45.000000	-45.000000	-4065.539094	-2623.952126	159.843569	37.533575	719.686846	162.506909	13.009004	15.259035	-1.011727	31.970270	-30.037600	-45.000000	-45.000000	-3874.151514	-1003.171832	26.572381	48.608372	1429.161741	36.442949	14.431414	-16.781372	
